<?xml version="1.0" encoding="UTF-8"?>
<svg enable-background="new 0 0 382 382" version="1.1" viewBox="0 0 382 382" xml:space="preserve" xmlns="http://www.w3.org/2000/svg">
<path d="m347.44 0h-312.89c-19.084 0-34.555 15.471-34.555 34.555v312.89c0 19.085 15.471 34.556 34.555 34.556h312.89c19.085 0 34.556-15.471 34.556-34.556v-312.89c0-19.084-15.471-34.555-34.555-34.555zm-229.24 329.84c0 5.554-4.502 10.056-10.056 10.056h-42.806c-5.554 0-10.056-4.502-10.056-10.056v-179.44c0-5.554 4.502-10.056 10.056-10.056h42.806c5.554 0 10.056 4.502 10.056 10.056v179.44zm-31.459-206.41c-22.459 0-40.666-18.207-40.666-40.666s18.207-40.666 40.666-40.666 40.666 18.207 40.666 40.666-18.206 40.666-40.666 40.666zm255.16 207.22c0 5.106-4.14 9.246-9.246 9.246h-45.934c-5.106 0-9.246-4.14-9.246-9.246v-84.168c0-12.556 3.683-55.021-32.813-55.021-28.309 0-34.051 29.066-35.204 42.11v97.079c0 5.106-4.139 9.246-9.246 9.246h-44.426c-5.106 0-9.246-4.14-9.246-9.246v-181.06c0-5.106 4.14-9.246 9.246-9.246h44.426c5.106 0 9.246 4.14 9.246 9.246v15.655c10.497-15.753 26.097-27.912 59.312-27.912 73.552 0 73.131 68.716 73.131 106.47v86.846z" fill="#ffffff"/>















</svg>
