<svg height="448pt" viewBox="0 0 448 448" width="448pt" xmlns="http://www.w3.org/2000/svg"><path d="M314.375 144h-180.75L224 221.464844zm0 0"/><path d="M224 240c-1.910156 0-3.757812-.683594-5.207031-1.929688L120 153.390625V304h208V153.390625l-98.792969 84.679687C227.757812 239.316406 225.910156 240 224 240zm0 0"/><path d="M224 0C100.289062 0 0 100.289062 0 224s100.289062 224 224 224 224-100.289062 224-224C447.859375 100.347656 347.652344.140625 224 0zm120 312c0 4.417969-3.582031 8-8 8H112c-4.417969 0-8-3.582031-8-8V136c0-4.417969 3.582031-8 8-8h224c4.417969 0 8 3.582031 8 8zm0 0"/></svg>