<?xml version="1.0" encoding="UTF-8"?>
<svg width="512pt" height="512pt" viewBox="0 0 512 512" xmlns="http://www.w3.org/2000/svg">
<path d="m224.11 303.96 83.273-47.961-83.273-47.961z"/>
<path d="m256 0c-141.36 0-256 114.64-256 256s114.64 256 256 256 256-114.64 256-256-114.64-256-256-256zm159.96 256.26s0 51.918-6.5859 76.953c-3.6914 13.703-14.496 24.508-28.199 28.195-25.035 6.5898-125.18 6.5898-125.18 6.5898s-99.879 0-125.18-6.8516c-13.703-3.6875-24.508-14.496-28.199-28.199-6.5898-24.77-6.5898-76.949-6.5898-76.949s0-51.914 6.5898-76.949c3.6875-13.703 14.758-24.773 28.199-28.461 25.035-6.5898 125.18-6.5898 125.18-6.5898s100.14 0 125.18 6.8516c13.703 3.6875 24.508 14.496 28.199 28.199 6.8516 25.035 6.5859 77.211 6.5859 77.211z"/>
</svg>
